<?xml version="1.0" standalone="no"?>
<!DOCTYPE svg PUBLIC "-//W3C//DTD SVG 20010904//EN"
 "http://www.w3.org/TR/2001/REC-SVG-20010904/DTD/svg10.dtd">
<svg version="1.0" xmlns="http://www.w3.org/2000/svg"
 width="70" height="70" viewBox="0 0 1152.000000 648.000000"
 preserveAspectRatio="xMidYMid meet">

<g transform="translate(0.000000,648.000000) scale(0.100000,-0.100000)"
fill="#000000" stroke="none">
<path d="M30 5715 c0 -479 4 -765 10 -765 5 0 12 -16 16 -35 3 -19 10 -35 15
-35 5 0 9 -19 9 -43 0 -30 6 -48 20 -60 11 -9 20 -25 20 -35 0 -10 8 -25 18
-34 38 -37 52 -55 52 -66 0 -7 7 -12 15 -12 8 0 15 -5 15 -10 0 -6 8 -14 17
-17 10 -4 27 -15 38 -25 71 -64 88 -76 119 -82 19 -4 37 -13 40 -21 8 -23
1424 -23 1432 0 3 8 21 17 39 21 19 3 42 17 52 30 10 13 24 24 31 24 7 0 15 7
18 15 4 8 12 15 19 15 7 0 15 7 19 15 3 8 10 15 16 15 12 0 40 24 40 35 0 4
14 20 30 37 17 16 30 36 30 44 0 8 5 14 10 14 6 0 10 9 10 19 0 11 8 26 18 33
13 9 21 31 25 72 3 33 12 63 19 67 10 7 14 158 16 779 l3 770 -1116 0 -1115 0
0 -765z"/>
<path d="M14 6215 c0 -137 2 -195 3 -128 2 67 2 179 0 250 -1 70 -3 16 -3
-122z"/>
</g>
</svg>
